<svg width="26" height="26" viewBox="0 0 26 26" fill="var(--color-yellow)"><path d="M18.92 0h-5.282c-.545 0-.987.442-.987.987V5.28c0 .544.443.986.988.986h5.282c.45 0 .815.364.815.814v1.974c0 .45-.365.814-.814.814h-4.285c-.218 0-.422-.086-.576-.238L6.264 1.835 4.72.29C4.534.103 4.283 0 4.02 0H.987C.442 0 0 .442 0 .987V18.92C0 22.83 3.17 26 7.08 26h9.458c.545 0 .987-.442.987-.987V20.72c0-.544-.442-.985-.987-.985h-9.46c-.448 0-.813-.365-.813-.814v-8.223L9.63 14.06c1.338 1.337 3.114 2.073 5.005 2.073h4.286c3.91 0 7.08-3.17 7.08-7.08V7.08C26 3.17 22.83 0 18.92 0"></path></svg>