<svg xmlns="http://www.w3.org/2000/svg" viewBox="0 0 1440 320"><path fill="#fdee23" fill-opacity="1" d="M0,32L34.3,32C68.6,32,137,32,206,69.3C274.3,107,343,181,411,186.7C480,192,549,128,617,112C685.7,96,754,128,823,122.7C891.4,117,960,75,1029,48C1097.1,21,1166,11,1234,5.3C1302.9,0,1371,0,1406,0L1440,0L1440,320L1405.7,320C1371.4,320,1303,320,1234,320C1165.7,320,1097,320,1029,320C960,320,891,320,823,320C754.3,320,686,320,617,320C548.6,320,480,320,411,320C342.9,320,274,320,206,320C137.1,320,69,320,34,320L0,320Z"></path></svg>